<svg id="Design" xmlns="http://www.w3.org/2000/svg" viewBox="0 0 4110 900"><defs><style>.cls-1{fill:#fff;}</style></defs><title>HeartTrack_Logo</title><path class="cls-1" d="M41.34,669.85a19.85,19.85,0,0,1-20.1-20.1V250.22a19.85,19.85,0,0,1,20.1-20.1H89.09c10.68,0,19.48,8.8,19.48,20.1V421.09H254.3V250.22a19.85,19.85,0,0,1,20.1-20.1h47.74c10.68,0,19.47,8.8,19.47,20.1V649.75c0,11.31-8.79,20.1-19.47,20.1H274.4a19.85,19.85,0,0,1-20.1-20.1v-157H108.57v157c0,11.31-8.8,20.1-19.48,20.1Z"/><path class="cls-1" d="M553.31,676.13c-88.58,0-143.23-50.25-143.23-132.54V444.33c0-82.29,54.65-132.54,143.23-132.54,87.31,0,142,50.25,142,132.54v45.23A19.57,19.57,0,0,1,675.79,509H493.62v32c0,47.74,21.36,69.11,59.68,69.11,42.08,0,57.15-25.76,57.15-44,0-11.31,6.29-17,18.22-17h47.11c10.68,0,17.58,7.54,17.58,18.84C693.38,615.82,645,676.13,553.31,676.13ZM493,448.1v8.8L612.35,455v-8.16c0-45.23-20.1-69.11-59-69.11C515,377.74,493,401,493,448.1Z"/><path class="cls-1" d="M900.66,311.79c88.58,0,136.94,44.6,136.94,122.49V649.75a19.85,19.85,0,0,1-20.1,20.1H983.58c-11.3,0-22-8.79-23.86-19.47l-1.89-12.56c-20.73,22-60.93,38.31-102.4,38.31-63.45,0-100.51-39.57-100.51-98.62,0-65.34,43.34-98.63,118.73-98.63,27,0,61.56,5,80.41,10.05V438.68c0-42.71-17-60.3-53.39-60.3-37.69,0-53.39,25.12-53.39,48.37,0,11.3-7.54,17-18.84,17H783.19c-10.68,0-19.47-7.53-19.47-18.84C763.72,371.46,808.33,311.79,900.66,311.79ZM954.06,581.9V541.7a224.23,224.23,0,0,0-66.59-10.05c-32.66,0-48.36,16.33-48.36,42.09s18.84,39.57,44.59,39.57A94,94,0,0,0,954.06,581.9Z"/><path class="cls-1" d="M1283.2,327.49v40.83c0,10.05-6.91,15.7-16.33,15.7-27,0-56.53,14.45-72.88,39.57V649.75a19.84,19.84,0,0,1-20.1,20.1h-43.34a20.24,20.24,0,0,1-20.1-20.1V338.17a20.24,20.24,0,0,1,20.1-20.1h32a23.66,23.66,0,0,1,23.24,19.47l2.51,21.36c17.59-27,54-47.11,79.16-47.11C1277.54,311.79,1283.2,317.44,1283.2,327.49Z"/><path class="cls-1" d="M1343.49,551.12V380.88h-13.82c-10.68,0-19.47-8.79-19.47-20.1V338.17c0-11.31,8.79-20.1,19.47-20.1h17.59l6.28-67.85a23,23,0,0,1,22.61-20.1h30.78a19.85,19.85,0,0,1,20.1,20.1v67.85h70.36a19.84,19.84,0,0,1,20.1,20.1v22.61a19.84,19.84,0,0,1-20.1,20.1H1427V550.5c0,41.45,15.7,60.3,51.51,60.3a194.78,194.78,0,0,0,27-1.89c10.68-1.25,18.22,5.66,18.22,15.7v27c0,10.68-8.8,21.36-20.1,22.62a285.91,285.91,0,0,1-39.58,2.51C1381.18,676.76,1343.49,633.41,1343.49,551.12Z"/><path class="cls-1" d="M2719.32,669.85c-10.68,0-19.48-8.79-19.48-20.1V301.11h-96.11a19.57,19.57,0,0,1-19.47-19.47V250.22c0-11.3,8.79-20.1,19.47-20.1h279.54c10.68,0,19.47,8.8,19.47,20.1v31.41a19.57,19.57,0,0,1-19.47,19.47h-96.11V649.75a19.85,19.85,0,0,1-20.1,20.1Z"/><path class="cls-1" d="M3096.21,327.49v40.83c0,10.05-6.9,15.7-16.33,15.7-27,0-56.53,14.45-72.87,39.57V649.75a19.84,19.84,0,0,1-20.1,20.1h-43.34a20.24,20.24,0,0,1-20.1-20.1V338.17a20.24,20.24,0,0,1,20.1-20.1h32a23.66,23.66,0,0,1,23.24,19.47l2.52,21.36c17.58-27,54-47.11,79.15-47.11C3090.56,311.79,3096.21,317.44,3096.21,327.49Z"/><path class="cls-1" d="M3260.78,311.79c88.58,0,137,44.6,137,122.49V649.75a19.85,19.85,0,0,1-20.1,20.1h-33.92c-11.31,0-22-8.79-23.87-19.47l-1.89-12.56c-20.72,22-60.92,38.31-102.39,38.31-63.45,0-100.51-39.57-100.51-98.62,0-65.34,43.34-98.63,118.73-98.63,27,0,61.55,5,80.41,10.05V438.68c0-42.71-17-60.3-53.4-60.3-37.68,0-53.38,25.12-53.38,48.37,0,11.3-7.54,17-18.85,17h-45.23c-10.68,0-19.46-7.53-19.46-18.84C3123.85,371.46,3168.44,311.79,3260.78,311.79Zm53.4,270.11V541.7a224.28,224.28,0,0,0-66.59-10.05c-32.67,0-48.37,16.33-48.37,42.09s18.84,39.57,44.59,39.57A94,94,0,0,0,3314.19,581.9Z"/><path class="cls-1" d="M3610,675.5c-88.57,0-143.22-49.62-143.22-131.91V444.33c0-82.29,54.65-131.91,143.22-131.91,89.21,0,140.71,47.73,140.71,117.47,0,10.67-8.16,19.47-18.84,19.47h-45.22c-11.94,0-18.85-7.54-18.85-19.47,0-28.9-18.21-50.88-57.79-50.88-38.31,0-59.67,25.12-59.67,72.87V536c0,47.74,21.36,72.87,59.67,72.87,40.2,0,57.79-22.61,57.79-50.88,0-11.93,6.91-19.47,18.85-19.47h44.59c11.31,0,19.47,8.17,19.47,19.47C3750.74,625.24,3699.24,675.5,3610,675.5Z"/><path class="cls-1" d="M3839.93,669.85a20.24,20.24,0,0,1-20.1-20.1V218.82a20.24,20.24,0,0,1,20.1-20.1h43.34a19.84,19.84,0,0,1,20.1,20.1V460h13.82L4006.4,334.4a38.11,38.11,0,0,1,30.78-16.33h53.38a10.25,10.25,0,0,1,8.17,16.33L3976.25,495.84l130.66,158.3a9.31,9.31,0,0,1-6.91,15.7H4042.2c-11.94,0-25.12-5.65-32-15.7l-93.59-119.36h-13.2v115a19.84,19.84,0,0,1-20.1,20.1Z"/><path class="cls-1" d="M2466.13,507.48c113.19-113.19,120.12-297.61,10.08-413.85C2362-27,2171.66-29,2055,87.71h0C1938.34-29,1748-27,1633.79,93.63c-110,116.25-103.11,300.67,10.08,413.85L2020.38,884a49,49,0,0,0,69.24,0ZM2055,780.13,1712.19,437.32c-75-75-80.75-197.15-8.64-274.92,75.8-81.76,204.07-83.58,282.21-5.44h0l34.62,34.62a49,49,0,0,0,69.24,0l31.22-31.22c75-75,197.15-80.75,274.92-8.64,81.76,75.8,83.58,204.08,5.45,282.21Z"/><path class="cls-1" d="M2356.44,250.72a65.28,65.28,0,0,0-93.72-1.44,65.28,65.28,0,0,0-93.72,1.44c-24.5,26-21.94,67.54,3.34,92.82l73.07,73.07a24.48,24.48,0,0,0,34.62,0l73.08-73.08C2378.39,318.26,2381,276.74,2356.44,250.72Z"/></svg>